<?xml version="1.0" standalone="no"?>
<!DOCTYPE svg PUBLIC "-//W3C//DTD SVG 20010904//EN"
 "http://www.w3.org/TR/2001/REC-SVG-20010904/DTD/svg10.dtd">
<svg version="1.0" xmlns="http://www.w3.org/2000/svg"
 viewBox="0 0 2600.000000 2600.000000"
 preserveAspectRatio="xMidYMid meet">
<metadata>
Created by potrace 1.15, written by Peter Selinger 2001-2017
</metadata>
<g transform="translate(0.000000,2600.000000) scale(0.100000,-0.100000)"
fill="#f4adad" stroke="none">
<path class="b_color" d="M11860 22111 c-427 -157 -769 -379 -1120 -731 -274 -274 -506 -588
-714 -967 -237 -433 -440 -996 -560 -1553 -87 -405 -146 -957 -146 -1374 0
-94 -3 -117 -13 -113 -43 16 -291 91 -402 121 -502 136 -958 205 -1473 225
-1437 56 -2706 -421 -3385 -1273 -43 -55 -83 -111 -89 -125 -26 -69 -39 -55
594 -609 472 -413 586 -518 572 -523 -11 -4 -350 -35 -754 -69 -404 -33 -752
-65 -772 -71 -20 -5 -47 -22 -59 -37 -21 -26 -21 -33 -16 -192 36 -1004 663
-2033 1722 -2830 525 -394 1154 -724 1800 -942 99 -34 184 -64 188 -68 5 -4
-20 -47 -56 -96 -684 -951 -1100 -2026 -1178 -3043 -15 -204 -7 -654 15 -821
71 -528 228 -966 484 -1348 81 -121 113 -148 165 -138 16 3 328 184 694 402
365 218 666 394 668 392 2 -2 -75 -344 -172 -760 -121 -521 -174 -764 -169
-783 12 -47 49 -70 168 -103 269 -75 484 -104 783 -104 298 0 526 28 831 102
1135 275 2263 1075 3106 2202 l110 147 71 -97 c296 -409 706 -846 1108 -1183
614 -515 1311 -885 1990 -1058 320 -82 561 -113 874 -113 303 0 503 26 785
104 132 36 170 63 170 120 0 19 -77 371 -170 783 -94 411 -169 749 -168 751 2
1 302 -178 668 -399 585 -353 670 -401 706 -401 53 -1 65 10 147 132 614 921
680 2229 181 3604 -196 540 -502 1116 -851 1601 -35 49 -65 93 -66 98 -1 5 75
36 168 68 1686 578 2970 1713 3399 3004 94 282 134 499 143 772 l5 180 -30 29
-30 28 -787 72 -787 71 582 504 c319 277 590 515 601 529 41 52 24 96 -90 237
-535 661 -1444 1101 -2531 1225 -694 79 -1481 18 -2217 -171 -131 -33 -447
-126 -499 -146 -12 -4 -14 21 -14 146 0 526 -85 1159 -227 1686 -47 178 -160
514 -228 682 -73 180 -244 527 -333 675 -471 787 -1079 1319 -1780 1559 -92
31 -128 30 -161 -5 -11 -11 -155 -338 -321 -726 -166 -388 -305 -708 -309
-713 -4 -4 -142 311 -307 700 -176 416 -309 719 -324 736 -39 42 -71 42 -190
-2z"/>
</g>
</svg>
